name sv09_filtered_grf.mot
datacolumns 37
datarows 10
range 0.607000 0.611500
endheader
time	1_ground_force_vx	1_ground_force_vy	1_ground_force_vz	1_ground_force_px	1_ground_force_py	1_ground_force_pz	1_ground_torque_x	1_ground_torque_y	1_ground_torque_z	2_ground_force_vx	2_ground_force_vy	2_ground_force_vz	2_ground_force_px	2_ground_force_py	2_ground_force_pz	2_ground_torque_x	2_ground_torque_y	2_ground_torque_z	3_ground_force_vx	3_ground_force_vy	3_ground_force_vz	3_ground_force_px	3_ground_force_py	3_ground_force_pz	3_ground_torque_x	3_ground_torque_y	3_ground_torque_z	4_ground_force_vx	4_ground_force_vy	4_ground_force_vz	4_ground_force_px	4_ground_force_py	4_ground_force_pz	4_ground_torque_x	4_ground_torque_y	4_ground_torque_z
            0.607000	            0.000000	           -0.000000	            0.000000	            0.450000	            0.000000	            0.900000	            0.000000	            0.000000	            0.000000	            0.000000	            0.000000	           -0.000000	           -0.215348	            0.000000	            0.245744	            0.000000	            0.000000	           -0.000000	          -44.320616	          268.214013	          116.512077	            0.379316	            1.018927	            1.097436	            2.238576	          -13.547138	           -5.884872	          -34.627189	          350.556998	          142.782829	           -0.493476	            1.017039	            1.099291	           -1.202033	           12.169077	            4.956498
            0.607500	            0.000000	            0.000000	            0.000000	            0.450000	            0.000000	            0.900000	            0.000000	            0.000000	           -0.000000	            0.000000	            0.000000	           -0.000000	           -0.215348	            0.000000	            0.245744	            0.000000	            0.000000	           -0.000000	          -44.409117	          267.778503	          116.763798	            0.379319	            1.018930	            1.097438	            2.241905	          -13.518259	           -5.894585	          -34.515832	          350.218318	          142.729733	           -0.493480	            1.017030	            1.099298	           -1.198572	           12.161427	            4.956329
            0.608000	            0.000000	            0.000000	            0.000000	            0.450000	            0.000000	            0.900000	            0.000000	            0.000000	           -0.000000	            0.000000	            0.000000	           -0.000000	           -0.215348	            0.000000	            0.245744	            0.000000	            0.000000	           -0.000000	          -44.502950	          267.352531	          117.012335	            0.379322	            1.018934	            1.097441	            2.245369	          -13.489107	           -5.903785	          -34.410278	          349.864875	          142.676167	           -0.493485	            1.017019	            1.099304	           -1.195326	           12.153423	            4.956210
            0.608500	            0.000000	            0.000000	            0.000000	            0.450000	            0.000000	            0.900000	            0.000000	            0.000000	           -0.000000	            0.000000	            0.000000	           -0.000000	           -0.215348	            0.000000	            0.245744	            0.000000	            0.000000	           -0.000000	          -44.601354	          266.937798	          117.252244	            0.379325	            1.018937	            1.097443	            2.248934	          -13.459804	           -5.912210	          -34.310598	          349.496055	          142.622409	           -0.493490	            1.017008	            1.099309	           -1.192298	           12.145032	            4.956147
            0.609000	            0.000000	            0.000000	            0.000000	            0.450000	            0.000000	            0.900000	            0.000000	            0.000000	           -0.000000	           -0.000000	            0.000000	           -0.000000	           -0.215348	            0.000000	            0.245744	            0.000000	            0.000000	           -0.000000	          -44.704104	          266.533463	          117.483535	            0.379328	            1.018941	            1.097446	            2.252593	          -13.430342	           -5.919872	          -34.216439	          349.111523	          142.568144	           -0.493495	            1.016997	            1.099315	           -1.189472	           12.136227	            4.956122
            0.609500	            0.000000	            0.000000	            0.000000	            0.450000	            0.000000	            0.900000	            0.000000	            0.000000	           -0.000000	           -0.000000	            0.000000	           -0.000000	           -0.215348	            0.000000	            0.245744	            0.000000	            0.000000	           -0.000000	          -44.810963	          266.138600	          117.706251	            0.379331	            1.018945	            1.097448	            2.256339	          -13.400713	           -5.926790	          -34.127407	          348.710964	          142.513019	           -0.493500	            1.016986	            1.099321	           -1.186835	           12.126981	            4.956118
            0.610000	            0.000000	            0.000000	            0.000000	            0.450000	            0.000000	            0.900000	            0.000000	            0.000000	           -0.000000	           -0.000000	            0.000000	           -0.000000	           -0.215348	            0.000000	            0.245744	            0.000000	            0.000000	           -0.000000	          -44.921685	          265.752200	          117.920470	            0.379335	            1.018949	            1.097450	            2.260164	          -13.370903	           -5.932983	          -34.043068	          348.294082	          142.456645	           -0.493505	            1.016974	            1.099326	           -1.184370	           12.117267	            4.956114
            0.610500	            0.000000	            0.000000	            0.000000	            0.450000	            0.000000	            0.900000	            0.000000	            0.000000	           -0.000000	           -0.000000	            0.000000	           -0.000000	           -0.215348	            0.000000	            0.245744	            0.000000	            0.000000	           -0.000000	          -45.035653	          265.370563	          118.132321	            0.379338	            1.018953	            1.097453	            2.264042	          -13.340768	           -5.938774	          -33.962841	          347.860914	          142.397858	           -0.493510	            1.016962	            1.099331	           -1.182054	           12.107067	            4.956062
            0.611000	            0.000000	            0.000000	            0.000000	            0.450000	            0.000000	            0.900000	            0.000000	            0.000000	           -0.000000	           -0.000000	            0.000000	           -0.000000	           -0.215348	            0.000000	            0.245744	            0.000000	            0.000000	           -0.000000	          -45.152969	          264.995156	          118.335902	            0.379342	            1.018958	            1.097456	            2.267985	          -13.310420	           -5.943884	          -33.886332	          347.410887	          142.336959	           -0.493516	            1.016949	            1.099335	           -1.179873	           12.096342	            4.955966
            0.611500	            0.000000	            0.000000	            0.000000	            0.450000	            0.000000	            0.900000	            0.000000	            0.000000	           -0.000000	           -0.000000	            0.000000	           -0.000000	           -0.215348	            0.000000	            0.245744	            0.000000	            0.000000	           -0.000000	          -45.273372	          264.624778	          118.531373	            0.379345	            1.018963	            1.097459	            2.271983	          -13.279839	           -5.948338	          -33.813008	          346.943758	          142.273488	           -0.493521	            1.016936	            1.099339	           -1.177806	           12.085064	            4.955801
